<svg width="148" height="183" viewBox="0 0 148 183" fill="none" xmlns="http://www.w3.org/2000/svg">
<g filter="url(#filter0_d_10_143)">
<path d="M4.82474 93.393C2.68981 84.2883 8.28175 74.9455 17.3147 72.5251L122.177 44.4273C131.21 42.0069 140.264 47.4256 142.399 56.5302V56.5302C144.533 65.6348 138.942 74.9776 129.909 77.398L25.046 105.496C16.013 107.916 6.95968 102.498 4.82474 93.393V93.393Z" fill="#12B886"/>
</g>
<g filter="url(#filter1_d_10_143)">
<path d="M5.60165 89.4917C7.73658 80.3871 16.7899 74.9685 25.8229 77.3888L130.685 105.487C139.718 107.907 145.31 117.25 143.175 126.355V126.355C141.04 135.459 131.987 140.878 122.954 138.457L18.0916 110.36C9.05866 107.939 3.46672 98.5964 5.60165 89.4917V89.4917Z" fill="#12B886"/>
</g>
<defs>
<filter id="filter0_d_10_143" x="0.370361" y="43.8505" width="146.483" height="70.2222" filterUnits="userSpaceOnUse" color-interpolation-filters="sRGB">
<feFlood flood-opacity="0" result="BackgroundImageFix"/>
<feColorMatrix in="SourceAlpha" type="matrix" values="0 0 0 0 0 0 0 0 0 0 0 0 0 0 0 0 0 0 127 0" result="hardAlpha"/>
<feOffset dy="4"/>
<feGaussianBlur stdDeviation="2"/>
<feComposite in2="hardAlpha" operator="out"/>
<feColorMatrix type="matrix" values="0 0 0 0 0 0 0 0 0 0 0 0 0 0 0 0 0 0 0.25 0"/>
<feBlend mode="normal" in2="BackgroundImageFix" result="effect1_dropShadow_10_143"/>
<feBlend mode="normal" in="SourceGraphic" in2="effect1_dropShadow_10_143" result="shape"/>
</filter>
<filter id="filter1_d_10_143" x="1.14722" y="76.812" width="146.483" height="70.2222" filterUnits="userSpaceOnUse" color-interpolation-filters="sRGB">
<feFlood flood-opacity="0" result="BackgroundImageFix"/>
<feColorMatrix in="SourceAlpha" type="matrix" values="0 0 0 0 0 0 0 0 0 0 0 0 0 0 0 0 0 0 127 0" result="hardAlpha"/>
<feOffset dy="4"/>
<feGaussianBlur stdDeviation="2"/>
<feComposite in2="hardAlpha" operator="out"/>
<feColorMatrix type="matrix" values="0 0 0 0 0 0 0 0 0 0 0 0 0 0 0 0 0 0 0.25 0"/>
<feBlend mode="normal" in2="BackgroundImageFix" result="effect1_dropShadow_10_143"/>
<feBlend mode="normal" in="SourceGraphic" in2="effect1_dropShadow_10_143" result="shape"/>
</filter>
</defs>
</svg>
