<svg width="146" height="183" viewBox="0 0 146 183" fill="none" xmlns="http://www.w3.org/2000/svg">
<path d="M122 91C122 109.167 116.462 125.577 107.556 137.422C98.6504 149.266 86.4229 156.5 73 156.5C59.5771 156.5 47.3496 149.266 38.4439 137.422C29.5379 125.577 24 109.167 24 91C24 72.8481 29.5231 60.9123 38.2907 53.4907C47.0893 46.0428 59.3197 43 73 43C86.6803 43 98.9107 46.0428 107.709 53.4907C116.477 60.9123 122 72.8481 122 91Z" fill="white" stroke="black" stroke-width="2"/>
<ellipse cx="74.4285" cy="92.4456" rx="31.4286" ry="41.9239" fill="#2E1D20"/>
<ellipse cx="83" cy="73.6522" rx="8.57143" ry="8.67391" fill="#D9D9D9"/>
</svg>
