<svg width="146" height="183" viewBox="0 0 146 183" fill="none" xmlns="http://www.w3.org/2000/svg">
<path d="M123 91.3236C123 128.051 100.614 157.824 73 157.824C45.3858 157.824 23 128.051 23 91.3236C23 54.5967 45.3858 60.3237 73 60.3237C100.614 60.3237 123 54.5967 123 91.3236Z" fill="white"/>
<path d="M123 91.3236C123 128.051 100.614 157.824 73 157.824C45.3858 157.824 23 128.051 23 91.3236C23 54.5967 45.3858 60.3237 73 60.3237C100.614 60.3237 123 54.5967 123 91.3236Z" fill="white"/>
<path d="M123 91.3236C123 128.051 100.614 157.824 73 157.824C45.3858 157.824 23 128.051 23 91.3236C23 54.5967 45.3858 60.3237 73 60.3237C100.614 60.3237 123 54.5967 123 91.3236Z" stroke="black" stroke-width="2"/>
<path d="M105.857 92.7692C105.857 115.923 91.786 134.693 74.4285 134.693C57.071 134.693 42.9999 115.923 42.9999 92.7692C42.9999 69.6153 57.071 60.8236 74.4285 60.8236C91.786 60.8236 105.857 69.6153 105.857 92.7692Z" fill="#2E1D20"/>
<ellipse cx="83" cy="73.9758" rx="8.57143" ry="8.67391" fill="#D9D9D9"/>
</svg>
