<svg width="146" height="183" viewBox="0 0 146 183" fill="none" xmlns="http://www.w3.org/2000/svg">
<g filter="url(#filter0_d_10_148)">
<path d="M9.00065 100.137C4.58201 91.8948 7.5653 81.423 15.664 76.7472L109.681 22.4663C117.78 17.7905 127.927 20.6813 132.346 28.9232V28.9232C136.765 37.165 133.781 47.6368 125.683 52.3126L31.6653 106.593C23.5666 111.269 13.4193 108.378 9.00065 100.137V100.137Z" fill="#12B886"/>
</g>
<g filter="url(#filter1_d_10_148)">
<path d="M9.00063 85.9231C13.4193 77.6813 23.5666 74.7905 31.6653 79.4663L125.683 133.747C133.781 138.423 136.765 148.895 132.346 157.137V157.137C127.927 165.378 117.78 168.269 109.681 163.593L15.664 109.313C7.56529 104.637 4.582 94.165 9.00063 85.9231V85.9231Z" fill="#12B886"/>
</g>
<defs>
<filter id="filter0_d_10_148" x="2.95691" y="20.229" width="135.433" height="96.6018" filterUnits="userSpaceOnUse" color-interpolation-filters="sRGB">
<feFlood flood-opacity="0" result="BackgroundImageFix"/>
<feColorMatrix in="SourceAlpha" type="matrix" values="0 0 0 0 0 0 0 0 0 0 0 0 0 0 0 0 0 0 127 0" result="hardAlpha"/>
<feOffset dy="4"/>
<feGaussianBlur stdDeviation="2"/>
<feComposite in2="hardAlpha" operator="out"/>
<feColorMatrix type="matrix" values="0 0 0 0 0 0 0 0 0 0 0 0 0 0 0 0 0 0 0.25 0"/>
<feBlend mode="normal" in2="BackgroundImageFix" result="effect1_dropShadow_10_148"/>
<feBlend mode="normal" in="SourceGraphic" in2="effect1_dropShadow_10_148" result="shape"/>
</filter>
<filter id="filter1_d_10_148" x="2.95691" y="77.229" width="135.433" height="96.6018" filterUnits="userSpaceOnUse" color-interpolation-filters="sRGB">
<feFlood flood-opacity="0" result="BackgroundImageFix"/>
<feColorMatrix in="SourceAlpha" type="matrix" values="0 0 0 0 0 0 0 0 0 0 0 0 0 0 0 0 0 0 127 0" result="hardAlpha"/>
<feOffset dy="4"/>
<feGaussianBlur stdDeviation="2"/>
<feComposite in2="hardAlpha" operator="out"/>
<feColorMatrix type="matrix" values="0 0 0 0 0 0 0 0 0 0 0 0 0 0 0 0 0 0 0.25 0"/>
<feBlend mode="normal" in2="BackgroundImageFix" result="effect1_dropShadow_10_148"/>
<feBlend mode="normal" in="SourceGraphic" in2="effect1_dropShadow_10_148" result="shape"/>
</filter>
</defs>
</svg>
