<svg width="146" height="183" viewBox="0 0 146 183" fill="none" xmlns="http://www.w3.org/2000/svg">
<path d="M120.5 103C117.5 133 100.114 158.324 72.5 158.324C44.8858 158.324 25 132.5 23 101C40 101 44.8858 100 72.5 100C100.114 100 107.5 101 120.5 103Z" fill="white"/>
<path d="M120.5 103C117.5 133 100.114 158.324 72.5 158.324C44.8858 158.324 25 132.5 23 101C40 101 44.8858 100 72.5 100C100.114 100 107.5 101 120.5 103Z" fill="white"/>
<path d="M120.5 103C117.5 133 100.114 158.324 72.5 158.324C44.8858 158.324 25 132.5 23 101C40 101 44.8858 100 72.5 100C100.114 100 107.5 101 120.5 103Z" stroke="black" stroke-width="2"/>
<path d="M72.5 101C99.3933 101 107.032 101.949 119.406 103.844C116.162 133.205 99.0643 157.324 72.5 157.324C45.9266 157.324 26.427 132.715 24.0724 101.999C30.994 101.981 35.9226 101.796 41.3967 101.589C42.1861 101.56 42.9868 101.529 43.8064 101.499C50.5951 101.25 58.7076 101 72.5 101Z" fill="white" stroke="black" stroke-width="2"/>
<path d="M103 101.5C98 124 91.786 135.37 74.4285 135.37C57.071 135.37 45 124 43 100.5C57.5 100.5 57.071 100.5 74.4285 100.5C91.786 100.5 90.5 100 103 101.5Z" fill="#2E1D20"/>
</svg>
