<svg width="146" height="183" viewBox="0 0 146 183" fill="none" xmlns="http://www.w3.org/2000/svg">
<path d="M123 91.2829C123 128.01 100.614 157.783 73 157.783C45.3858 157.783 23 128.01 23 91.2829C39.5 78.9593 45.3858 82.4593 73 82.4593C100.614 82.4593 110 79.9593 123 91.2829Z" fill="white"/>
<path d="M123 91.2829C123 128.01 100.614 157.783 73 157.783C45.3858 157.783 23 128.01 23 91.2829C39.5 78.9593 45.3858 82.4593 73 82.4593C100.614 82.4593 110 79.9593 123 91.2829Z" fill="white"/>
<path d="M123 91.2829C123 128.01 100.614 157.783 73 157.783C45.3858 157.783 23 128.01 23 91.2829C39.5 78.9593 45.3858 82.4593 73 82.4593C100.614 82.4593 110 79.9593 123 91.2829Z" stroke="black" stroke-width="2"/>
<path d="M103.5 101.459C98.5 123.959 91.786 134.829 74.4285 134.829C57.071 134.829 45 123.459 43 99.9594C43 76.8055 57.071 82.9595 74.4285 82.9595C91.786 82.9595 103.5 78.3055 103.5 101.459Z" fill="#2E1D20"/>
</svg>
