<svg width="146" height="183" viewBox="0 0 146 183" fill="none" xmlns="http://www.w3.org/2000/svg">
<path d="M122 91.5C122 109.667 116.462 126.077 107.556 137.922C98.6504 149.766 86.4229 157 73 157C59.5771 157 47.3496 149.766 38.4439 137.922C29.5379 126.077 24 109.667 24 91.5C24 73.3326 29.5379 56.9233 38.4439 45.0784C47.3496 33.2338 59.5771 26 73 26C86.4229 26 98.6504 33.2338 107.556 45.0784C116.462 56.9233 122 73.3326 122 91.5Z" fill="white" stroke="black" stroke-width="2"/>
<ellipse cx="74.4285" cy="92.9456" rx="31.4286" ry="41.9239" fill="#2E1D20"/>
<ellipse cx="83" cy="74.1522" rx="8.57143" ry="8.67391" fill="#D9D9D9"/>
</svg>
