<svg width="146" height="183" viewBox="0 0 146 183" fill="none" xmlns="http://www.w3.org/2000/svg">
<path d="M122 91.5C122 109.667 116.462 126.077 107.556 137.922C98.6504 149.766 86.4229 157 73 157C59.5771 157 47.3496 149.766 38.4439 137.922C29.5379 126.077 24 109.667 24 91.5C24 73.3406 29.5316 58.9677 38.3873 49.1471C47.2397 39.3301 59.4667 34 73 34C86.5333 34 98.7603 39.3301 107.613 49.1471C116.468 58.9677 122 73.3406 122 91.5Z" fill="white" stroke="black" stroke-width="2"/>
<ellipse cx="74.4285" cy="92.9456" rx="31.4286" ry="41.9239" fill="#2E1D20"/>
<ellipse cx="83" cy="74.1522" rx="8.57143" ry="8.67391" fill="#D9D9D9"/>
</svg>
