<svg width="146" height="183" viewBox="0 0 146 183" fill="none" xmlns="http://www.w3.org/2000/svg">
<path d="M117 122C111.5 135.5 102 156.5 73 157.824C53.5 157.824 36 145 28 122C45 122 45.3858 122 73 122C100.614 122 103 122 117 122Z" fill="white"/>
<path d="M117 122C111.5 135.5 102 156.5 73 157.824C53.5 157.824 36 145 28 122C45 122 45.3858 122 73 122C100.614 122 103 122 117 122Z" fill="white"/>
<path d="M117 122C111.5 135.5 102 156.5 73 157.824C53.5 157.824 36 145 28 122C45 122 45.3858 122 73 122C100.614 122 103 122 117 122Z" stroke="black" stroke-width="2"/>
<path d="M96.5 122C88.5 132 83.5 133.5 74.9285 134.87C57.5 134.87 53.5 123 51 122C65.5 122 57.571 122 74.9285 122C92.286 122 84.5 122 96.5 122Z" fill="#2E1D20"/>
</svg>
